<?xml version="1.0" standalone="no"?>
<!DOCTYPE svg PUBLIC "-//W3C//DTD SVG 20010904//EN"
 "http://www.w3.org/TR/2001/REC-SVG-20010904/DTD/svg10.dtd">
<svg version="1.0" xmlns="http://www.w3.org/2000/svg"
 width="260.000000pt" height="260.000000pt" viewBox="0 0 260.000000 260.000000"
 preserveAspectRatio="xMidYMid meet">
<metadata>
Created by potrace 1.11, written by Peter Selinger 2001-2013
</metadata>
<g transform="translate(0.000000,260.000000) scale(0.100000,-0.100000)"
fill="#000000" stroke="none">
<path d="M414 2410 l-1 -60 69 0 68 0 0 -510 0 -510 65 0 65 0 0 -60 c0 -41 4
-60 13 -61 6 -1 28 -2 47 -3 l35 -1 3 -508 2 -507 73 0 72 0 0 561 c0 308 3
565 6 570 3 6 41 9 84 7 l79 -3 -41 -40 c-45 -43 -46 -47 -44 -173 l1 -73 73
3 72 3 -1 67 c-1 44 3 71 11 78 23 19 58 20 77 3 16 -14 18 -34 18 -177 -1
-118 -4 -166 -14 -179 -10 -13 -28 -17 -83 -17 -69 0 -69 0 -113 -45 l-45 -46
0 -269 0 -270 198 0 198 0 -3 62 -3 62 -122 -1 -123 0 0 178 c0 208 -1 207
100 204 58 -1 62 0 107 42 l48 43 0 228 1 227 -44 48 c-33 34 -52 47 -73 47
-27 0 -28 1 -31 62 l-3 62 -105 1 -105 0 0 195 0 195 60 1 c33 1 75 2 93 3
l32 1 0 60 0 59 -92 3 -93 3 0 185 0 185 105 1 105 0 0 60 0 59 -177 3 -178 2
0 -570 0 -571 -102 3 -103 3 -1 495 c0 272 2 501 4 508 3 8 26 12 68 12 l64 0
0 60 0 60 -208 0 -208 0 0 -60z"/>
<path d="M1353 2426 l-43 -42 0 -225 0 -225 43 -42 c41 -40 44 -42 112 -43
106 -2 105 0 105 -198 -1 -122 -4 -171 -14 -183 -17 -23 -68 -23 -89 0 -18 20
-17 11 -17 112 l0 80 -70 0 c-38 0 -70 -3 -71 -7 -1 -5 -2 -57 -3 -118 l-1
-110 44 -47 44 -48 80 0 81 0 -45 -47 -45 -48 2 -100 c1 -55 2 -105 3 -111 1
-7 27 -11 71 -11 l70 1 0 82 c0 94 11 114 64 114 57 0 62 -16 62 -191 -1 -188
-2 -189 -93 -189 l-64 0 3 -63 3 -62 60 0 c91 0 90 2 90 -194 0 -186 -5 -201
-59 -201 -56 1 -66 17 -66 111 l0 85 -70 0 c-41 0 -70 -5 -71 -11 0 -5 -1 -56
-2 -113 l0 -103 43 -44 44 -45 117 0 117 0 46 45 46 44 0 200 0 199 -45 43
-45 43 45 46 45 46 0 192 0 193 -46 44 -46 45 -81 0 -81 0 44 45 45 46 0 227
1 227 -45 48 -44 47 -73 0 c-100 0 -100 0 -99 193 1 169 6 187 55 187 45 0 56
-25 56 -122 l-1 -88 72 0 73 0 0 121 0 121 -46 44 -45 44 -112 -1 -112 0 -42
-43z"/>
<path d="M1764 2410 l0 -60 68 0 68 0 0 -510 0 -510 73 0 72 0 0 508 0 507 68
3 67 3 0 59 0 60 -208 0 -208 0 0 -60z"/>
</g>
</svg>
